<svg width="250" height="250" viewBox="0 0 250 250" fill="none" xmlns="http://www.w3.org/2000/svg">
<mask id="mask0" mask-type="alpha" maskUnits="userSpaceOnUse" x="0" y="0" width="250" height="250">
<circle cx="125" cy="125" r="125" fill="white"/>
</mask>
<g mask="url(#mask0)">
<path d="M190.314 204.7L145.31 180C145.31 180 144.347 196.897 124.5 196.897C104.653 196.897 102.661 180 102.661 180L58.5863 204.7C55.2674 206.552 52.8111 209.594 51.6495 213.198L40 250H121.812H124.202H209L197.351 213.264C196.189 209.627 193.667 206.552 190.314 204.7Z" fill="#646464"/>
<path d="M64.7864 78.2826C54.3768 93.2166 59.5648 118.206 59.5648 118.206L67.0002 108.881C67.9585 142.001 82.4989 156.338 92.6111 162.311C94.8582 165.597 97.4359 168.451 100.146 170.907C101.269 171.936 102.36 172.732 103.054 173.23C107.515 176.416 112.472 178.573 117.892 179.469C118.288 179.535 118.685 179.602 119.114 179.635C119.643 179.701 120.205 179.768 120.734 179.834C121.791 179.934 122.849 180 123.939 180C125.063 180 126.153 179.934 127.244 179.834C127.905 179.768 128.533 179.668 129.194 179.569C129.557 179.502 129.887 179.469 130.251 179.403C136.199 178.374 141.652 175.852 146.411 172.002C147.038 171.471 147.997 170.741 149.352 169.38C152.293 166.46 154.97 163.042 157.283 159.126C159.96 157.201 163.066 154.678 166.668 151.393C193.237 126.968 175.227 87.5416 175.227 87.5416L186 95.3737C184.513 64.7423 171.129 56.9103 171.129 56.9103L181.902 61.3904C170.006 26.312 134.316 35.9362 134.316 35.9362L144.725 27.4072C97.502 13.2364 81.9041 47.8502 81.9041 47.8502C54.013 54.8526 55.0044 83.7915 55.0044 83.7915L64.7864 78.2826ZM78.9629 99.4225C78.996 99.4225 79.0291 99.4225 79.0622 99.3894C79.2274 106.193 79.8222 110.938 79.8222 110.938H82.8957C82.6643 107.055 83.2924 101.812 84.2838 96.4026C95.3543 95.5729 113.86 91.159 124.798 72.3089L117.363 93.4157C117.363 93.4157 140.033 88.0063 141.354 63.5476C141.354 63.5476 149.715 82.5968 146.939 88.7364C146.939 88.7364 156.06 83.3269 158.109 71.5788C158.109 71.5788 166.371 98.4933 165.611 110.972H168.684C168.684 110.972 169.279 106.226 169.444 99.4225C169.444 99.4225 169.444 99.4225 169.477 99.4225C175.425 101.414 175.558 110.872 172.22 128.295C170.369 138.052 167.329 139.512 165.214 139.114C163.793 138.848 162.736 137.753 162.736 137.753L162.801 136.127V136.028C162.107 139.247 161.249 142.333 160.257 145.22C160.257 145.253 160.224 145.32 160.224 145.353C159.761 146.747 159.232 148.074 158.704 149.402C158.671 149.468 158.671 149.535 158.638 149.568C156.093 155.741 152.855 160.951 149.121 165.132C148.394 165.929 147.666 166.725 146.873 167.455C146.741 167.588 146.642 167.688 146.51 167.82C145.717 168.584 144.858 169.281 144.031 169.944C143.932 170.044 143.8 170.11 143.701 170.21C142.842 170.874 141.982 171.471 141.09 172.035C140.958 172.102 140.826 172.201 140.727 172.268C139.868 172.799 138.975 173.296 138.083 173.728C137.918 173.794 137.752 173.894 137.587 173.993C136.728 174.391 135.836 174.757 134.944 175.088C134.712 175.155 134.514 175.254 134.316 175.321C133.456 175.619 132.597 175.852 131.738 176.051C131.474 176.117 131.21 176.217 130.945 176.283C130.086 176.482 129.194 176.615 128.334 176.715C128.07 176.748 127.773 176.814 127.508 176.847C126.352 176.98 125.195 177.046 124.005 177.046C122.882 177.046 121.791 176.98 120.667 176.881C120.601 176.881 120.502 176.847 120.436 176.847C112.869 176.018 105.962 172.5 100.212 166.659C99.8153 166.261 99.4189 165.796 99.0554 165.398C97.5683 163.772 96.1472 161.946 94.8584 160.022C94.8254 159.988 94.7922 159.922 94.7592 159.889C94.1313 158.96 93.5367 157.964 92.9419 156.968C92.9088 156.902 92.8426 156.802 92.8096 156.703C92.2478 155.707 91.686 154.679 91.1572 153.65C91.0912 153.517 91.0579 153.417 90.9919 153.285C90.4962 152.256 90.0006 151.161 89.5049 150.066C89.4388 149.933 89.4056 149.8 89.3395 149.667C88.8769 148.572 88.4472 147.444 88.0176 146.282C87.9846 146.15 87.9187 146.017 87.8857 145.884C87.0265 143.395 86.2331 140.773 85.5722 138.019C85.4731 138.118 85.3409 138.218 85.1757 138.351C85.1426 138.351 85.143 138.384 85.1099 138.384C84.5481 138.749 83.7217 139.18 82.7634 139.18C80.6814 139.18 78.0048 137.189 76.3195 128.295C72.9157 110.872 73.0146 101.414 78.9629 99.4225Z" fill="#646464"/>
<!-- <path d="M91.8057 234.287C96.0496 234.287 99.3321 231.933 99.3321 228.286C99.3321 226.197 98.3043 224.605 96.0165 223.08L94.7566 222.185C93.0656 221.058 92.4359 220.129 92.4359 218.869C92.4359 217.212 93.762 216.084 95.6519 216.084C97.9728 216.084 99.3323 217.742 99.4981 220.991H100.294L101.056 216.35C100.028 215.554 97.9726 214.857 95.4527 214.857C90.8772 214.857 88.1918 217.311 88.1918 220.593C88.1918 222.749 89.2528 224.207 91.5406 225.733L92.8005 226.628C94.4915 227.755 95.0881 228.75 95.0881 230.109C95.0881 231.966 93.5632 233.06 91.6401 233.06C89.2861 233.06 87.3961 231.502 87.3629 228.12H86.5672L85.8047 232.894C86.932 233.657 89.4185 234.287 91.8057 234.287ZM104.77 234.187C106.428 234.187 108.118 233.425 108.815 232.331L108.981 231.435C108.55 231.866 107.886 232.132 107.124 232.132C105.93 232.132 105.4 231.369 105.765 229.645L107.256 222.649L110.307 222.516L110.738 221.356L107.422 221.721L108.185 218.173L103.941 218.77L103.311 221.654L101.521 222.019L101.355 222.815H103.046L101.62 229.645C101.056 232.563 102.217 234.187 104.77 234.187ZM115.015 218.902C116.275 218.902 117.27 217.908 117.27 216.714C117.27 215.587 116.374 214.692 115.214 214.692C113.954 214.692 112.959 215.653 112.959 216.88C112.926 218.007 113.821 218.902 115.015 218.902ZM116.673 220.627L110.771 221.323L110.34 222.483C110.34 222.483 110.97 222.45 111.301 222.45C111.666 222.45 112.064 222.914 111.931 223.677L110.373 230.905C109.876 233.159 110.704 234.187 112.528 234.187C114.086 234.187 115.578 233.491 116.341 232.529L116.507 231.634C116.142 231.933 115.612 232.099 115.181 232.099C114.551 232.099 114.286 231.667 114.485 230.772L116.673 220.627ZM125.724 214.559L119.789 215.156L119.623 215.985L120.419 216.184C121.082 216.383 121.215 216.648 121.049 217.377L117.535 233.922H121.613L123.337 225.799C123.801 223.81 125.094 222.55 126.255 222.55C127.349 222.55 127.747 223.379 127.448 224.837L126.188 230.839C125.724 233.093 126.52 234.121 128.343 234.121C129.902 234.121 131.394 233.425 132.123 232.463L132.289 231.568C131.924 231.866 131.394 232.032 130.963 232.032C130.333 232.032 130.101 231.601 130.3 230.706L131.493 225.136C132.123 222.218 130.963 220.627 128.41 220.627C126.321 220.627 124.498 221.82 123.536 224.34L125.724 214.559ZM138.29 218.902C139.55 218.902 140.545 217.908 140.545 216.714C140.545 215.587 139.65 214.692 138.489 214.692C137.229 214.692 136.235 215.653 136.235 216.88C136.201 218.007 137.097 218.902 138.29 218.902ZM139.915 220.726L133.98 221.422L133.814 222.251L134.61 222.45C135.24 222.649 135.372 222.881 135.24 223.644L133.681 230.872C133.184 233.126 134.013 234.154 135.837 234.154C137.395 234.154 138.887 233.458 139.65 232.496L139.815 231.601C139.451 231.9 138.92 232.065 138.489 232.065C137.859 232.065 137.594 231.634 137.793 230.739L139.915 220.726Z" fill="white"/>
<path d="M153.28 234.121C158.572 234.121 162.862 229.831 162.862 224.539C162.862 219.247 158.572 214.957 153.28 214.957C147.988 214.957 143.698 219.247 143.698 224.539C143.698 229.831 147.988 234.121 153.28 234.121Z" fill="white"/>
<path d="M148.537 226.959C148.305 228.119 148.703 228.617 149.631 228.617C150.427 228.617 151.19 228.252 151.554 227.788L151.654 227.324C151.455 227.49 151.189 227.556 150.99 227.556C150.659 227.556 150.559 227.324 150.626 226.86L151.72 221.754L143.862 222.98C143.829 223.179 143.796 223.411 143.763 223.61C145.056 223.511 148.703 223.279 148.902 223.279C149.167 223.279 149.3 223.511 149.233 223.876L148.537 226.959Z" fill="#646464"/>
<path d="M150.984 218.703C150.354 218.703 149.824 219.201 149.824 219.831C149.824 220.394 150.288 220.859 150.885 220.859C151.515 220.859 152.012 220.361 152.012 219.731C152.012 219.134 151.581 218.703 150.984 218.703Z" fill="#646464"/>
<path d="M155.266 228.683C157.587 228.683 159.113 226.926 159.113 224.771C159.113 223.014 157.985 221.754 156.195 221.754C153.874 221.754 152.349 223.511 152.349 225.666C152.349 227.423 153.476 228.683 155.266 228.683ZM155.3 228.086C154.736 228.086 154.404 227.556 154.404 226.462C154.404 224.804 155.001 222.317 156.128 222.317C156.692 222.317 157.024 222.848 157.024 223.942C157.024 225.6 156.427 228.086 155.3 228.086Z" fill="#646464"/>
 --></g>
</svg>
